<svg width="40" height="40" viewBox="0 0 54 54" fill="none" xmlns="http://www.w3.org/2000/svg">
<path fill-rule="evenodd" clip-rule="evenodd" d="M38.8753 31.2507C40.3934 31.2507 41.6676 32.5036 41.4355 34.0028C40.0737 42.8228 32.5231 49.3715 23.4166 49.3715C13.3413 49.3715 5.17499 41.2052 5.17499 31.1323C5.17499 22.8333 11.4797 15.1028 18.5779 13.3549C20.1031 12.9783 21.6663 14.0512 21.6663 15.6215C21.6663 26.2604 22.0239 29.0125 24.0442 30.5094C26.0645 32.0062 28.44 31.2507 38.8753 31.2507Z" stroke="#6DEDC3" stroke-width="2.5" stroke-linecap="round" stroke-linejoin="round"/>
<path fill-rule="evenodd" clip-rule="evenodd" d="M48.8082 22.3912C48.929 15.5559 40.5329 4.53804 30.3013 4.72751C29.5055 4.74172 28.8684 5.40488 28.8329 6.1983C28.5748 11.8186 28.9229 19.1015 29.1171 22.403C29.1763 23.4309 29.984 24.2386 31.0095 24.2978C34.4034 24.492 41.9516 24.7572 47.4913 23.9188C48.2445 23.8051 48.7963 23.1515 48.8082 22.3912Z" stroke="#6DEDC3" stroke-width="2.5" stroke-linecap="round" stroke-linejoin="round"/>
</svg>
