<svg width="41" height="41" viewBox="0 0 41 41" fill="none" xmlns="http://www.w3.org/2000/svg">
    <circle cx="20.5" cy="20.5" r="20.5" fill="#8976FD"/>
    <path fillRule="evenodd" clipRule="evenodd" d="M11 20.9635C11 15.4696 15.4698 11 20.9639 11C26.458 11 30.9277 15.4696 30.9277 20.9635C30.9277 26.4577 26.458 30.9275 20.9639 30.9275C15.4698 30.9275 11 26.4577 11 20.9635ZM12.5998 20.9635C12.5998 25.5756 16.3519 29.3277 20.9639 29.3277C25.5758 29.3277 29.3279 25.5756 29.3279 20.9635C29.3279 16.3517 25.5758 12.5997 20.9639 12.5997C16.3519 12.5997 12.5998 16.3517 12.5998 20.9635ZM26.3031 18.0105C22.143 16.0878 16.3001 16.941 16.0534 16.9782C15.6167 17.0442 15.3163 17.4515 15.3821 17.8882C15.4479 18.3248 15.8556 18.6261 16.292 18.5601C16.3477 18.5517 21.9116 17.7434 25.6319 19.4627C25.7405 19.5129 25.8547 19.5367 25.9671 19.5367C26.2693 19.5367 26.5586 19.3646 26.6937 19.0722C26.8791 18.6711 26.7041 18.1959 26.3031 18.0105ZM16.4069 20.0847C16.6299 20.0511 21.9114 19.2798 25.6777 21.0203C26.0787 21.2056 26.2536 21.681 26.0683 22.082C25.9331 22.3745 25.6439 22.5465 25.3416 22.5466C25.2293 22.5466 25.1153 22.5228 25.0065 22.4726C21.6802 20.9354 16.6954 21.6591 16.6455 21.6667C16.2089 21.7323 15.8013 21.4314 15.7356 20.9947C15.6698 20.558 15.9702 20.1507 16.4069 20.0847ZM16.5907 23.0759C16.7867 23.0464 21.4284 22.3685 24.7447 23.9011C25.1458 24.0865 25.3206 24.5618 25.1353 24.9628C25.0002 25.2552 24.7109 25.4272 24.4087 25.4273C24.2964 25.4273 24.1821 25.4035 24.0736 25.3533C21.1883 24.0198 16.8729 24.6512 16.8296 24.6578C16.3931 24.7235 15.9853 24.4232 15.9192 23.9863C15.8532 23.5495 16.1539 23.1419 16.5907 23.0759Z" fill="white"/>
    </svg>