<svg width="41" height="41" viewBox="0 0 41 41" fill="none" xmlns="http://www.w3.org/2000/svg">
    <circle opacity="0.2" cx="20.5" cy="20.5" r="20.5" fill="#8976FD"/>
    <path fillRule="evenodd" clipRule="evenodd" d="M27.629 13.6986L27.629 13.6987L27.6386 13.6994C28.3925 13.7574 28.8304 13.9028 29.0989 14.0628C29.3359 14.204 29.5298 14.408 29.6988 14.791C29.8837 15.2097 30.0295 15.8251 30.1204 16.7457C30.2105 17.6583 30.2391 18.7807 30.2391 20.1748C30.2391 21.5687 30.2105 22.6974 30.1203 23.6177C30.0293 24.5466 29.883 25.1717 29.6969 25.5971C29.526 25.9876 29.333 26.1874 29.1064 26.3206C28.8492 26.4718 28.4225 26.6095 27.6768 26.6478L27.6704 26.6481C24.4705 26.8259 17.2988 26.8262 14.0852 26.649C13.3407 26.5903 12.9069 26.4457 12.6402 26.2868C12.4032 26.1456 12.2093 25.9416 12.0403 25.5586C11.8554 25.1399 11.7096 24.5246 11.6187 23.6039C11.5286 22.6914 11.5 21.569 11.5 20.1748C11.5 18.7807 11.5286 17.6583 11.6187 16.7457C11.7096 15.8251 11.8554 15.2097 12.0403 14.791C12.2093 14.408 12.4032 14.204 12.6402 14.0628C12.9087 13.9028 13.3466 13.7574 14.1005 13.6994L14.1006 13.6994L14.1101 13.6986C17.288 13.4338 24.4511 13.4338 27.629 13.6986ZM10 20.1748C10 25.7907 10.4529 27.8741 13.9855 28.1458C17.2464 28.327 24.4927 28.327 27.7536 28.1458C31.2862 27.9647 31.7391 25.7907 31.7391 20.1748C31.7391 14.5589 31.2862 12.4755 27.7536 12.2038C24.4927 11.9321 17.2464 11.9321 13.9855 12.2038C10.4529 12.4755 10 14.5589 10 20.1748ZM19.5996 23.0745C18.9347 23.407 18.1523 22.9235 18.1523 22.1801V18.1698C18.1523 17.4264 18.9347 16.9429 19.5996 17.2754L23.6099 19.2805C24.3469 19.649 24.3469 20.7008 23.6099 21.0694L19.5996 23.0745Z" fill="white"/>
    </svg>