<svg width="41" height="41" viewBox="0 0 41 41" fill="none" xmlns="http://www.w3.org/2000/svg">
    <circle opacity="0.2" cx="20.5" cy="20.5" r="20.5" fill="#8976FD"/>
    <path d="M21 12.8333C23.6667 12.8333 24 12.8333 25.0833 12.9167C27.8333 13 29.0833 14.3333 29.1667 17C29.25 18.0833 29.25 18.3333 29.25 21C29.25 23.6667 29.25 24 29.1667 25C29.0833 27.6667 27.75 29 25.0833 29.0833C24 29.1667 23.75 29.1667 21 29.1667C18.3333 29.1667 18 29.1667 17 29.0833C14.25 29 13 27.6667 12.9167 25C12.8333 23.9167 12.8333 23.6667 12.8333 21C12.8333 18.3333 12.8333 18 12.9167 17C13 14.3333 14.3333 13 17 12.9167C18 12.8333 18.3333 12.8333 21 12.8333ZM21 11C18.25 11 17.9167 11 16.9167 11.0833C13.25 11.25 11.25 13.25 11.0833 16.9167C11 17.9167 11 18.25 11 21C11 23.75 11 24.0833 11.0833 25.0833C11.25 28.75 13.25 30.75 16.9167 30.9167C17.9167 31 18.25 31 21 31C23.75 31 24.0833 31 25.0833 30.9167C28.75 30.75 30.75 28.75 30.9167 25.0833C31 24.0833 31 23.75 31 21C31 18.25 31 17.9167 30.9167 16.9167C30.75 13.25 28.75 11.25 25.0833 11.0833C24.0833 11 23.75 11 21 11ZM21 15.8333C18.1667 15.8333 15.8333 18.1667 15.8333 21C15.8333 23.8333 18.1667 26.1667 21 26.1667C23.8333 26.1667 26.1667 23.8333 26.1667 21C26.1667 18.1667 23.8333 15.8333 21 15.8333ZM21 24.3333C19.1667 24.3333 17.6667 22.8333 17.6667 21C17.6667 19.1667 19.1667 17.6667 21 17.6667C22.8333 17.6667 24.3333 19.1667 24.3333 21C24.3333 22.8333 22.8333 24.3333 21 24.3333ZM26.3333 14.5C25.6667 14.5 25.1667 15 25.1667 15.6667C25.1667 16.3333 25.6667 16.8333 26.3333 16.8333C27 16.8333 27.5 16.3333 27.5 15.6667C27.5 15 27 14.5 26.3333 14.5Z" fill="white"/>
    </svg>